<?xml version="1.0" standalone="no"?>
<!DOCTYPE svg PUBLIC "-//W3C//DTD SVG 20010904//EN"
 "http://www.w3.org/TR/2001/REC-SVG-20010904/DTD/svg10.dtd">
<svg version="1.0" xmlns="http://www.w3.org/2000/svg"
 width="646.000000pt" height="646.000000pt" viewBox="0 0 646.000000 646.000000"
 preserveAspectRatio="xMidYMid meet">
<metadata>
Created by potrace 1.11, written by Peter Selinger 2001-2013
</metadata>
<g transform="translate(0.000000,646.000000) scale(0.100000,-0.100000)"
fill="#000000" stroke="none">
<path d="M2870 6450 c-508 -49 -909 -233 -1254 -576 -228 -228 -403 -504 -496
-782 -126 -377 -54 -695 212 -947 278 -265 679 -414 1483 -550 116 -19 220
-38 231 -40 22 -5 22 -6 -12 -82 l-34 -78 -37 1 c-49 2 -653 105 -848 145
-249 51 -491 126 -627 195 -84 42 -215 130 -269 181 -107 100 -199 273 -223
418 -13 75 -16 74 -124 -34 -55 -56 -125 -134 -156 -175 -225 -299 -241 -577
-44 -782 83 -86 175 -146 316 -206 208 -88 433 -146 1085 -278 189 -38 399
-86 468 -106 68 -20 132 -38 142 -41 9 -3 17 -9 17 -13 0 -18 -231 -572 -272
-653 -16 -33 -23 -38 -43 -33 -144 36 -576 48 -779 21 -456 -60 -821 -234
-1044 -498 -120 -141 -183 -252 -228 -402 -15 -47 -19 -92 -18 -210 0 -134 3
-160 27 -238 36 -116 73 -189 145 -279 111 -140 245 -232 419 -288 240 -77
569 -54 846 59 315 129 627 401 836 731 30 47 55 87 57 89 5 6 255 -81 378
-131 266 -109 536 -265 736 -422 99 -79 301 -282 370 -374 37 -49 61 -72 76
-72 11 0 99 46 195 103 524 309 837 544 1092 821 340 369 521 676 624 1056
l28 105 0 375 0 375 -36 135 c-98 365 -241 635 -443 835 -275 274 -634 423
-1380 575 -110 22 -202 42 -204 45 -3 2 14 29 37 60 209 276 603 668 874 869
152 113 212 185 232 283 5 27 1 37 -29 71 -47 51 -92 63 -217 55 -121 -7 -139
1 -299 128 -125 100 -278 205 -380 261 -228 125 -594 244 -873 283 -136 19
-431 27 -557 15z m142 -459 c151 -39 269 -106 389 -218 169 -160 291 -376 374
-662 52 -182 62 -249 40 -290 -15 -29 -180 -257 -210 -289 -9 -10 -37 -8 -146
12 -74 14 -260 43 -414 66 -516 76 -722 126 -910 223 -231 120 -361 329 -327
526 42 235 329 499 665 610 162 54 381 63 539 22z m696 -2571 c618 -155 1018
-395 1174 -704 79 -157 102 -279 96 -503 -7 -225 -62 -440 -173 -678 -51 -110
-194 -355 -208 -355 -4 0 -73 36 -152 80 -425 235 -840 419 -1240 550 -104 34
-192 64 -193 65 -5 4 189 657 198 667 7 9 268 -80 426 -145 245 -100 415 -203
553 -333 186 -175 280 -362 332 -658 13 -70 26 -126 29 -126 12 0 150 388 180
506 130 503 -5 906 -391 1164 -111 74 -186 112 -339 173 -110 44 -360 121
-482 148 -32 6 -58 16 -58 21 0 26 63 168 75 168 7 0 85 -18 173 -40z m-1909
-2296 c17 -4 31 -9 31 -13 0 -19 -141 -157 -203 -199 -136 -90 -378 -148 -455
-108 -40 21 -52 43 -52 101 0 113 91 179 290 210 89 14 335 19 389 9z"/>
</g>
</svg>
